;TYPE=PLATED
;Layer: PTH_Through
;EasyEDA Pro v2.2.47.7, 2026-05-25 02:28:16
;Gerber Generator version 0.3
M48
METRIC,LZ,0000.00000
;Hole size 1 = 0.30500 METRIC
T01C0.30500
;Hole size 2 = 0.90000 METRIC
T02C0.90000
;Hole size 3 = 0.91440 METRIC
T03C0.91440
;Hole size 4 = 1.00000 METRIC
T04C1.00000
;Hole size 5 = 1.00000 METRIC
T05C1.00000
;Hole size 6 = 1.02000 METRIC
T06C1.02000
;Hole size 7 = 1.04999 METRIC
T07C1.04999
%
G05
G90
T01
X-96.28139Y-50.96339
X-96.27089Y-51.68411
X-96.27089Y-51.68411
X-96.69434Y-51.37634
X-96.82021Y-51.50221
X-70.88139Y-50.96339
X-70.88139Y-50.96339
X-70.88139Y-50.96339
X-70.88139Y-50.96339
X-94.35724Y-49.01824
X-100.165Y-52.578
T02
X-87.63Y-83.058
X-90.13Y-83.058
X-85.13Y-83.058
T03
X-117.983Y-5.715
X-115.824Y-5.715
X-113.411Y-5.715
T04
X-69.977Y-17.018
X-69.977Y-19.558
X-69.977Y-22.098
X-69.977Y-24.638
X-69.977Y-27.178
X-69.977Y-29.718
X-69.977Y-32.258
X-69.977Y-34.798
X-69.977Y-37.338
X-69.977Y-39.878
X-69.977Y-42.418
X-69.977Y-44.958
X-69.977Y-47.498
X-69.977Y-50.038
X-69.977Y-52.578
X-95.25Y-16.637
X-95.25Y-19.177
X-95.25Y-21.717
X-95.25Y-24.257
X-95.25Y-26.797
X-95.25Y-29.337
X-95.25Y-31.877
X-95.25Y-34.417
X-95.25Y-36.957
X-95.25Y-39.497
X-95.25Y-42.037
X-95.25Y-44.577
X-95.25Y-47.117
X-95.25Y-49.657
X-95.25Y-52.197
T05
X-64.77Y-80.083
X-69.57Y-77.183
X-64.77Y-73.783
T06
X-73.787Y-6.882
X-73.787Y-4.342
X-71.247Y-6.882
X-71.247Y-4.342
X-69.977Y-52.599
X-69.977Y-50.059
X-69.977Y-47.519
X-69.977Y-44.979
X-69.977Y-42.439
X-69.977Y-39.899
X-69.977Y-37.359
X-69.977Y-34.819
X-69.977Y-32.279
X-69.977Y-29.739
X-69.977Y-27.199
X-69.977Y-24.659
X-69.977Y-22.119
X-69.977Y-19.579
X-69.977Y-17.039
X-95.377Y-52.599
X-95.377Y-50.059
X-95.377Y-47.519
X-95.377Y-44.979
X-95.377Y-42.439
X-95.377Y-39.899
X-95.377Y-37.359
X-95.377Y-34.819
X-95.377Y-32.279
X-95.377Y-29.739
X-95.377Y-27.199
X-95.377Y-24.659
X-95.377Y-22.119
X-95.377Y-19.579
X-95.377Y-17.039
T07
X-101.6Y-52.705
X-101.6Y-50.165
X-101.6Y-47.625
X-101.6Y-45.085
X-101.6Y-42.545
X-101.6Y-40.005
X-101.6Y-37.465
X-101.6Y-34.925
X-101.6Y-32.385
X-101.6Y-29.845
X-101.6Y-27.305
X-101.6Y-24.765
X-101.6Y-22.225
X-101.6Y-19.685
X-101.6Y-17.145
X-98.679Y-52.578
X-98.679Y-50.038
X-98.679Y-47.498
X-98.679Y-44.958
X-98.679Y-42.418
X-98.679Y-39.878
X-98.679Y-37.338
X-98.679Y-34.798
X-98.679Y-32.258
X-98.679Y-29.718
X-98.679Y-27.178
X-98.679Y-24.638
X-98.679Y-22.098
X-98.679Y-19.558
X-98.679Y-17.018
X-66.802Y-52.451
X-66.802Y-49.911
X-66.802Y-47.371
X-66.802Y-44.831
X-66.802Y-42.291
X-66.802Y-39.751
X-66.802Y-37.211
X-66.802Y-34.671
X-66.802Y-32.131
X-66.802Y-29.591
X-66.802Y-27.051
X-66.802Y-24.511
X-66.802Y-21.971
X-66.802Y-19.431
X-66.802Y-16.891
X-63.246Y-52.705
X-63.246Y-50.165
X-63.246Y-47.625
X-63.246Y-45.085
X-63.246Y-42.545
X-63.246Y-40.005
X-63.246Y-37.465
X-63.246Y-34.925
X-63.246Y-32.385
X-63.246Y-29.845
X-63.246Y-27.305
X-63.246Y-24.765
X-63.246Y-22.225
X-63.246Y-19.685
X-63.246Y-17.145
M30